<svg width="32" height="32" viewBox="0 0 32 32" fill="none" xmlns="http://www.w3.org/2000/svg">
<g id="Group 427318777">
<path id="Vector" d="M14.0904 0.020526C14.4094 -0.00402798 14.7302 0.00445202 15.0498 0.00793401C15.8305 -0.00735768 16.6138 0.00417519 17.3948 0.00409905C17.3776 1.27372 17.3032 3.00651 17.4141 4.25077C17.7805 4.26229 18.1798 4.37284 18.5338 4.46576C23.0137 5.6416 26.6297 9.35515 27.2221 14.0729C27.6245 14.0939 28.0297 14.0849 28.4326 14.0848L30.2913 14.0844C30.6918 14.0843 31.0942 14.0736 31.4938 14.1035C31.4215 14.9326 31.431 16.5896 31.5 17.4098C30.2113 17.3539 28.5019 17.3432 27.2218 17.4248C27.1793 19.0424 26.162 21.2674 25.2496 22.5741C23.3883 25.2397 20.5727 26.9394 17.4022 27.4886C17.3829 27.6798 17.3914 27.8787 17.3913 28.0709L17.3917 29.0503C17.3923 29.8647 17.3713 30.6845 17.4012 31.4982L16.4588 31.5L14.0507 31.4963C14.1781 30.2751 14.0482 28.7174 14.0879 27.447C9.48793 26.5854 5.83089 23.6202 4.55068 18.959C4.41085 18.4499 4.27503 17.9239 4.24345 17.3949C2.83136 17.4233 1.41385 17.4002 0.00130836 17.3979C0.0365846 16.2895 -0.0309414 15.1754 0.0195286 14.068C0.531398 14.1072 1.05644 14.0854 1.56987 14.0851L4.18442 14.0837C5.29093 8.77283 8.66868 5.23532 14.0669 4.19179C14.1112 2.82132 14.0005 1.36761 14.0904 0.020526ZM15.3723 4.59552L15.0096 4.60446C14.9653 5.53437 15.0096 6.47326 14.9959 7.40468C10.9023 7.82757 7.90283 11.0287 7.35643 15.0763C7.00483 15.0968 6.65193 15.0904 6.29992 15.0905L4.46721 15.0921C4.44501 15.5681 4.45191 16.046 4.45573 16.5224C5.42219 16.4857 6.39462 16.552 7.35917 16.4915C7.40771 16.8705 7.454 17.2465 7.54061 17.6191C8.35651 21.1289 11.4576 23.8843 15.0131 24.2419C14.9592 25.1113 14.9699 26.283 15.0133 27.1524C15.3593 27.1672 15.7052 27.1665 16.0514 27.1656L16.3998 27.155C16.45 26.1815 16.4357 25.2095 16.435 24.2347C19.9984 23.984 23.1831 20.9703 23.9546 17.4778C24.0243 17.1626 24.04 16.8398 24.1011 16.5235C25.0544 16.479 26.0248 16.5006 26.9792 16.5119C26.9797 16.0398 26.9724 15.566 26.9873 15.0943C26.1239 15.0824 24.9372 15.1691 24.1101 15.082C24.0384 14.6719 23.9903 14.2671 23.8875 13.8624C23.0406 10.5264 20.5112 8.36378 17.3034 7.536C17.0383 7.46753 16.7453 7.37955 16.4718 7.36342C16.4425 6.44924 16.5217 5.51485 16.4451 4.60482C16.0882 4.5908 15.7293 4.58036 15.3723 4.59552Z" fill="#1491FF"/>
<path id="$" d="M14.918 19.5881C14.2199 19.5407 13.651 19.4537 13.2111 19.3271C12.7807 19.1927 12.4604 19.0819 12.25 18.9949L12.8668 17.6305C13.2015 17.765 13.5984 17.8876 14.0574 17.9983C14.526 18.109 15.0184 18.1644 15.5348 18.1644C16.1182 18.1644 16.515 18.1011 16.7254 17.9746C16.9454 17.8401 17.0553 17.6542 17.0553 17.4169C17.0553 17.2667 17.0123 17.1401 16.9262 17.0373C16.8402 16.9266 16.7158 16.8277 16.5533 16.7407C16.3907 16.6537 16.1851 16.5706 15.9365 16.4915C15.6878 16.4045 15.401 16.3136 15.0758 16.2186C14.7602 16.1237 14.4495 16.0209 14.1434 15.9102C13.847 15.7915 13.5745 15.6492 13.3258 15.4831C13.0867 15.3169 12.8907 15.1153 12.7377 14.878C12.5943 14.6328 12.5225 14.3401 12.5225 14C12.5225 13.739 12.5656 13.4898 12.6516 13.2525C12.7473 13.0073 12.8907 12.7859 13.082 12.5881C13.2732 12.3904 13.5219 12.2243 13.8279 12.0898C14.1339 11.9475 14.4973 11.8446 14.918 11.7814V10.5H16.7254V11.7339C17.2227 11.7734 17.6482 11.8328 18.002 11.9119C18.3654 11.991 18.6523 12.0701 18.8627 12.1492L18.418 13.5729C18.1025 13.4621 17.7343 13.3672 17.3135 13.2881C16.9023 13.209 16.4672 13.1695 16.0082 13.1695C15.5492 13.1695 15.2193 13.2328 15.0184 13.3593C14.8176 13.4859 14.7172 13.652 14.7172 13.8576C14.7172 13.9842 14.7459 14.0949 14.8033 14.1898C14.8702 14.2768 14.9706 14.3559 15.1045 14.4271C15.2384 14.4983 15.401 14.5695 15.5922 14.6407C15.793 14.704 16.0321 14.7751 16.3094 14.8542C16.7302 14.9808 17.1175 15.1192 17.4713 15.2695C17.8347 15.4198 18.1455 15.5938 18.4037 15.7915C18.6714 15.9814 18.877 16.2068 19.0205 16.4678C19.1735 16.7288 19.25 17.0333 19.25 17.3814C19.25 17.6186 19.207 17.8559 19.1209 18.0932C19.0348 18.3226 18.8914 18.5362 18.6906 18.7339C18.4898 18.9316 18.2268 19.1017 17.9016 19.2441C17.5861 19.3864 17.194 19.4893 16.7254 19.5525V21H14.918V19.5881Z" fill="#1491FF"/>
</g>
</svg>
