<svg width="30" height="30" viewBox="0 0 30 30" fill="none" xmlns="http://www.w3.org/2000/svg">
<g id="coin-sniper-bot">
<path id="Vector" d="M13.5959 1.52641C13.8688 1.50562 14.1434 1.5128 14.4168 1.51575C15.0849 1.50281 15.7552 1.51257 16.4236 1.5125C16.4089 2.58715 16.3452 4.05384 16.4401 5.10702C16.7536 5.11676 17.0954 5.21034 17.3983 5.28899C21.2319 6.28426 24.3263 9.42752 24.8332 13.4207C25.1776 13.4386 25.5243 13.4309 25.8692 13.4309L27.4598 13.4305C27.8025 13.4304 28.1468 13.4213 28.4888 13.4466C28.4268 14.1484 28.435 15.551 28.4941 16.2453C27.3913 16.1979 25.9284 16.1888 24.833 16.2579C24.7966 17.6271 23.9261 19.5104 23.1453 20.6164C21.5525 22.8727 19.1431 24.3114 16.43 24.7762C16.4134 24.938 16.4207 25.1064 16.4206 25.2691L16.421 26.0981C16.4215 26.7874 16.4035 27.4813 16.4291 28.1701L15.6226 28.1716L13.5619 28.1684C13.6709 27.1348 13.5598 25.8163 13.5937 24.7411C9.65734 24.0117 6.52784 21.5019 5.43231 17.5565C5.31265 17.1256 5.19642 16.6804 5.16939 16.2326C3.96101 16.2567 2.74798 16.2371 1.53921 16.2352C1.56939 15.297 1.51161 14.354 1.5548 13.4166C1.99283 13.4498 2.44213 13.4313 2.88149 13.4311L5.11888 13.4299C6.06577 8.93463 8.95626 5.94037 13.5758 5.0571C13.6137 3.89708 13.519 2.66662 13.5959 1.52641ZM14.6928 5.39882L14.3825 5.40639C14.3446 6.19349 14.3825 6.9882 14.3707 7.77658C10.8677 8.13453 8.30089 10.844 7.83331 14.2701C7.53243 14.2875 7.23044 14.282 6.92921 14.2821L5.36088 14.2834C5.34188 14.6864 5.34778 15.0908 5.35106 15.4941C6.1781 15.463 7.01025 15.5192 7.83566 15.4679C7.8772 15.7887 7.91681 16.107 7.99093 16.4224C8.68913 19.3931 11.3429 21.7254 14.3855 22.0281C14.3394 22.764 14.3485 23.7558 14.3857 24.4916C14.6818 24.5042 14.9777 24.5036 15.274 24.5028L15.5721 24.4938C15.6151 23.6698 15.6028 22.8471 15.6023 22.0221C18.6516 21.8098 21.3769 19.2589 22.0371 16.3028C22.0967 16.036 22.1102 15.7628 22.1625 15.495C22.9783 15.4573 23.8087 15.4757 24.6254 15.4852C24.6258 15.0856 24.6196 14.6846 24.6323 14.2853C23.8935 14.2753 22.878 14.3486 22.1701 14.2749C22.1089 13.9278 22.0677 13.5852 21.9797 13.2426C21.255 10.4189 19.0904 8.5884 16.3454 7.88773C16.1185 7.82978 15.8678 7.75531 15.6338 7.74166C15.6086 6.96787 15.6764 6.17697 15.6109 5.4067C15.3055 5.39483 14.9983 5.38599 14.6928 5.39882Z" fill="white"/>
<path id="Vector_2" d="M15.0188 16.4219C14.7326 16.3997 14.4449 16.4133 14.1585 16.394C11.5107 16.2159 10.4376 12.9726 12.1865 11.0982C13.1263 10.091 13.7938 10.1942 15.0572 10.1953C15.9218 10.196 16.7925 10.2172 17.6563 10.1876L17.67 10.1874C17.7241 10.2641 17.6825 12.2263 17.6605 12.4766C16.7456 12.56 15.8157 12.4388 14.8966 12.5096C14.8796 12.8465 14.8916 13.1957 14.9145 13.5321C15.1912 13.5191 15.47 13.5126 15.747 13.512C18.5873 13.5058 19.5148 17.0772 17.5749 18.9775C16.5507 19.9808 15.742 19.8202 14.4103 19.8204L11.7307 19.8167L11.6908 19.8105C11.6738 19.7788 11.6894 17.5432 11.6886 17.3488C12.7966 17.3485 13.9077 17.3303 15.0153 17.354C15.0201 17.0434 15.0221 16.7325 15.0188 16.4219Z" fill="white"/>
</g>
</svg>
