<svg width="20" height="20" viewBox="0 0 20 20" fill="none" xmlns="http://www.w3.org/2000/svg">
<path id="Vector" d="M12.6473 2.08101C12.6741 2.19174 12.7267 2.29457 12.8007 2.38115C12.8748 2.46773 12.9682 2.53561 13.0735 2.57926C13.1787 2.62292 13.2928 2.64112 13.4064 2.63239C13.52 2.62365 13.6299 2.58823 13.7273 2.52901C16.1663 1.04401 18.9573 3.83401 17.4722 6.27301C17.413 6.37027 17.3776 6.48014 17.3688 6.59368C17.36 6.70722 17.3781 6.82123 17.4216 6.92646C17.4652 7.03168 17.533 7.12515 17.6194 7.19926C17.7059 7.27338 17.8086 7.32605 17.9193 7.35301C20.6943 8.02601 20.6943 11.973 17.9193 12.647C17.8085 12.6738 17.7057 12.7264 17.6191 12.8005C17.5325 12.8745 17.4646 12.968 17.421 13.0732C17.3773 13.1785 17.3591 13.2925 17.3679 13.4061C17.3766 13.5197 17.412 13.6297 17.4713 13.727C18.9563 16.166 16.1663 18.957 13.7273 17.472C13.63 17.4128 13.5201 17.3773 13.4066 17.3685C13.293 17.3597 13.179 17.3778 13.0738 17.4214C12.9686 17.465 12.8751 17.5327 12.801 17.6192C12.7269 17.7056 12.6742 17.8084 12.6473 17.919C11.9742 20.694 8.02725 20.694 7.35325 17.919C7.32642 17.8083 7.27384 17.7054 7.19977 17.6189C7.12571 17.5323 7.03226 17.4644 6.92702 17.4207C6.82178 17.3771 6.70772 17.3589 6.59412 17.3676C6.48052 17.3764 6.37058 17.4118 6.27325 17.471C3.83425 18.956 1.04325 16.166 2.52825 13.727C2.58748 13.6297 2.62294 13.5199 2.63173 13.4063C2.64052 13.2928 2.62241 13.1788 2.57886 13.0736C2.5353 12.9683 2.46755 12.8749 2.38108 12.8007C2.29462 12.7266 2.1919 12.674 2.08125 12.647C-0.69375 11.974 -0.69375 8.02701 2.08125 7.35301C2.19198 7.32618 2.29482 7.27359 2.3814 7.19953C2.46798 7.12546 2.53585 7.03201 2.57951 6.92677C2.62316 6.82153 2.64136 6.70747 2.63263 6.59387C2.6239 6.48027 2.58848 6.37034 2.52925 6.27301C1.04425 3.83401 3.83425 1.04301 6.27325 2.52801C6.37042 2.58769 6.48033 2.6235 6.59401 2.63252C6.70768 2.64154 6.82187 2.62351 6.92723 2.5799C7.03259 2.53629 7.12613 2.46835 7.20018 2.38163C7.27423 2.29492 7.32668 2.1919 7.35325 2.08101C8.02625 -0.693994 11.9733 -0.693994 12.6473 2.08101ZM10.0002 7.00001C9.2046 7.00001 8.44154 7.31608 7.87893 7.87869C7.31632 8.44129 7.00025 9.20436 7.00025 10C7.00025 10.7957 7.31632 11.5587 7.87893 12.1213C8.44154 12.6839 9.2046 13 10.0002 13C10.7959 13 11.559 12.6839 12.1216 12.1213C12.6842 11.5587 13.0002 10.7957 13.0002 10C13.0002 9.20436 12.6842 8.44129 12.1216 7.87869C11.559 7.31608 10.7959 7.00001 10.0002 7.00001Z" fill="#1E372D"/>
</svg>
