<svg width="20" height="19" viewBox="0 0 20 19" fill="none" xmlns="http://www.w3.org/2000/svg">
<g id="Frame" clip-path="url(#clip0_292_1835)">
<path id="Vector" d="M13.7212 6.33333C13.5636 5.88623 13.2758 5.49651 12.8949 5.21434C12.5139 4.93217 12.0573 4.77045 11.5837 4.75H8.41699C7.7871 4.75 7.18301 5.00022 6.73761 5.44562C6.29221 5.89102 6.04199 6.49511 6.04199 7.125C6.04199 7.75489 6.29221 8.35898 6.73761 8.80438C7.18301 9.24978 7.7871 9.5 8.41699 9.5H11.5837C12.2135 9.5 12.8176 9.75022 13.263 10.1956C13.7084 10.641 13.9587 11.2451 13.9587 11.875C13.9587 12.5049 13.7084 13.109 13.263 13.5544C12.8176 13.9998 12.2135 14.25 11.5837 14.25H8.41699C7.94337 14.2296 7.48671 14.0678 7.10578 13.7857C6.72484 13.5035 6.43707 13.1138 6.27949 12.6667" stroke="#1E372D" stroke-width="2" stroke-linecap="round" stroke-linejoin="round"/>
<path id="Vector_2" d="M10 2.375V4.75M10 14.25V16.625" stroke="#1E372D" stroke-width="2" stroke-linecap="round" stroke-linejoin="round"/>
</g>
<defs>
<clipPath id="clip0_292_1835">
<rect width="19" height="19" fill="white" transform="translate(0.5)"/>
</clipPath>
</defs>
</svg>
