<svg width="24" height="24" viewBox="0 0 24 24" fill="none" xmlns="http://www.w3.org/2000/svg">
<g id="Group 427318778">
<path id="Vector" d="M17.001 8.00012V5.00012C17.001 4.73491 16.8956 4.48055 16.7081 4.29302C16.5205 4.10548 16.2662 4.00012 16.001 4.00012H6.00098C5.47054 4.00012 4.96184 4.21084 4.58676 4.58591C4.21169 4.96098 4.00098 5.46969 4.00098 6.00012M4.00098 6.00012C4.00098 6.53056 4.21169 7.03926 4.58676 7.41434C4.96184 7.78941 5.47054 8.00012 6.00098 8.00012H18.001C18.2662 8.00012 18.5205 8.10548 18.7081 8.29302C18.8956 8.48055 19.001 8.73491 19.001 9.00012V12.0001M4.00098 6.00012V18.0001C4.00098 18.5306 4.21169 19.0393 4.58676 19.4143C4.96184 19.7894 5.47054 20.0001 6.00098 20.0001H18.001C18.2662 20.0001 18.5205 19.8948 18.7081 19.7072C18.8956 19.5197 19.001 19.2653 19.001 19.0001V16.0001" stroke="white" stroke-width="2" stroke-linecap="round" stroke-linejoin="round"/>
<path id="Vector_2" d="M20 12.0001V16.0001H16C15.4696 16.0001 14.9609 15.7894 14.5858 15.4143C14.2107 15.0393 14 14.5306 14 14.0001C14 13.4697 14.2107 12.961 14.5858 12.5859C14.9609 12.2108 15.4696 12.0001 16 12.0001H20Z" stroke="white" stroke-width="2" stroke-linecap="round" stroke-linejoin="round"/>
</g>
</svg>
